<?xml version="1.0" encoding="UTF-8"?>
<svg width="100pt" height="100pt" version="1.1" viewBox="0 0 100 100" xmlns="http://www.w3.org/2000/svg">

<!-- <polygon fill="#ffffff" points="100,10 40,198 190,78 10,78 160,198"></polygon> -->
<!--
<g transform="translate(0.000000,697.000000) scale(0.100000,-0.100000)"
fill="#000000" stroke="none">
-->
<path d="m65.734 32.469c9.375-5.0234 16.742-4.6602 28.379-6.0625-10.992 7.2695-15.949 7.4453-21.719 16.277 10.629 0.33594 16.832 4.3359 27.605 8.9414-13.156 0.80078-17.535-1.5234-26.949 3.2383 9.0391 5.6055 12.41 12.168 19.438 21.547-11.793-5.8828-14.422-10.09-24.957-10.672 5.0234 9.375 4.6602 16.742 6.0625 28.379-7.2695-10.992-7.4453-15.949-16.277-21.719-0.33594 10.629-4.3359 16.832-8.9414 27.605-0.80078-13.156 1.5234-17.535-3.2344-26.949-5.6055 9.0352-12.168 12.41-21.547 19.438 5.8867-11.793 10.09-14.426 10.672-24.957-9.375 5.0234-16.742 4.6602-28.379 6.0625 10.992-7.2695 15.949-7.4453 21.719-16.277-10.629-0.33594-16.832-4.3359-27.605-8.9414 13.156-0.80078 17.535 1.5234 26.949-3.2383-9.0391-5.6055-12.41-12.168-19.438-21.547 11.793 5.8867 14.422 10.09 24.957 10.672-5.0234-9.375-4.6602-16.742-6.0625-28.379 7.2695 10.992 7.4453 15.949 16.277 21.719 0.33594-10.629 4.3359-16.828 8.9414-27.605 0.80078 13.156-1.5234 17.535 3.2344 26.949 5.6055-9.0352 12.168-12.406 21.547-19.438-5.8867 11.793-10.09 14.426-10.672 24.957z" fill-rule="evenodd"/>
<!--
<path d="M3340 6504 c0 -8 5 -12 10 -9 6 3 10 10 10 16 0 5 -4 9 -10 9 -5 0
-10 -7 -10 -16z"/>
<path d="M3570 6237 c0 -11 -11 -17 -37 -19 -38 -3 -38 -4 -99 -127 -34 -68
-68 -128 -77 -132 -12 -7 -13 -17 -7 -46 34 -158 37 -192 18 -211 -8 -8 -8
-15 0 -24 5 -7 13 -31 17 -53 4 -22 12 -48 16 -57 6 -10 5 -36 -1 -64 -8 -33
-7 -50 1 -60 9 -10 3 -23 -25 -56 -30 -35 -34 -43 -21 -51 9 -5 15 -22 15 -43
0 -42 47 -94 85 -94 25 0 35 -23 15 -35 -20 -12 -10 -27 15 -23 27 6 32 -1 13
-20 -18 -18 -3 -25 21 -11 29 19 38 3 18 -30 -21 -36 -22 -61 -2 -61 8 0 15
-5 15 -11 0 -7 12 -10 30 -7 36 5 40 -12 10 -42 -23 -23 -18 -49 5 -30 20 17
32 6 40 -36 3 -20 17 -53 30 -74 30 -47 55 -107 55 -130 0 -10 15 -37 34 -59
19 -23 38 -51 41 -62 9 -28 73 -91 108 -106 45 -21 102 -16 134 11 24 20 126
52 159 50 6 -1 17 13 24 32 14 34 50 54 50 27 0 -10 6 -13 16 -9 9 3 18 6 20
6 2 0 4 5 4 10 0 6 -7 10 -15 10 -25 0 -17 27 16 51 36 25 58 15 40 -19 -14
-27 -14 -32 3 -32 8 0 27 -11 43 -23 36 -31 71 -22 127 31 23 21 61 50 86 64
25 15 56 38 69 52 15 16 35 26 53 26 20 0 31 6 37 22 7 19 14 21 72 19 77 -2
123 21 145 74 19 47 18 72 -7 112 -17 27 -21 49 -20 104 0 39 5 79 11 89 19
35 11 79 -22 129 -18 26 -44 67 -58 90 -86 147 -113 166 -309 225 -126 38
-165 65 -206 147 -13 25 -30 51 -38 57 -8 7 -21 27 -28 45 -7 18 -25 48 -40
67 -15 19 -32 52 -39 72 -18 59 -137 148 -198 148 -11 0 -33 5 -49 11 -15 7
-77 15 -137 19 -99 8 -110 11 -137 36 -22 21 -41 28 -84 32 -45 4 -55 2 -55
-11z m-158 -859 c-7 -7 -12 -8 -12 -2 0 14 12 26 19 19 2 -3 -1 -11 -7 -17z
m1195 -535 c15 -32 11 -38 -16 -23 -23 12 -29 50 -8 50 6 0 18 -12 24 -27z
m80 5 c15 -7 30 -13 31 -14 2 -1 1 -12 -3 -23 -10 -32 -58 -28 -73 4 -22 48
-10 56 45 33z"/>
<path d="M2425 5970 c-17 -18 -48 -41 -70 -52 -75 -38 -165 -118 -190 -169
-40 -78 -58 -307 -40 -496 l7 -73 34 0 c30 0 34 -4 43 -37 6 -21 11 -46 11
-55 0 -23 -20 -34 -31 -17 -4 7 -11 10 -15 6 -4 -3 -1 -13 6 -22 9 -11 10 -18
1 -29 -9 -10 -8 -16 4 -26 27 -23 17 -70 -17 -83 -10 -4 -18 -16 -18 -29 l1
-23 18 22 c10 12 21 19 25 16 3 -4 6 -37 6 -73 0 -57 6 -82 41 -161 23 -52 49
-101 58 -110 9 -9 49 -34 89 -54 l73 -37 75 11 c139 21 198 13 276 -35 20 -13
49 -26 64 -30 16 -4 42 -20 59 -36 16 -15 35 -28 40 -28 6 0 38 27 73 60 69
65 116 86 143 63 11 -9 26 -12 43 -7 20 5 26 12 26 35 0 20 9 35 33 53 38 29
59 32 76 12 10 -11 7 -17 -11 -30 -12 -9 -29 -16 -38 -16 -12 -1 -11 -3 3 -15
22 -16 67 -1 67 22 0 7 10 13 23 13 29 0 83 33 97 60 6 12 17 41 24 64 17 55
9 229 -11 269 -10 21 -11 32 -3 41 8 10 4 17 -14 29 -13 9 -38 40 -55 69 -40
68 -77 110 -120 134 -25 14 -35 16 -38 7 -8 -21 -29 -15 -79 23 -26 20 -59 40
-73 44 -20 5 -27 14 -29 40 -4 34 -91 174 -124 198 -10 7 -18 24 -18 37 0 15
-16 37 -45 63 -31 27 -43 45 -39 56 4 12 0 16 -15 16 -24 0 -40 28 -22 39 15
9 45 127 37 146 -3 9 -19 15 -41 15 -42 0 -125 21 -125 32 0 15 -65 41 -98 40
-19 -1 -46 5 -61 12 -14 8 -44 17 -66 20 -36 6 -43 4 -70 -24z"/>
<path d="M3325 5640 c-10 -11 -13 -20 -8 -20 13 0 38 29 31 35 -3 3 -13 -4
-23 -15z"/>
<path d="M3305 5591 c-6 -11 9 -23 19 -14 9 9 7 23 -3 23 -6 0 -12 -4 -16 -9z"/>
<path d="M3339 5508 c-16 -18 -24 -35 -18 -37 11 -3 69 47 69 61 0 17 -22 7
-51 -24z"/>
<path d="M2100 5130 c0 -5 5 -10 10 -10 6 0 10 5 10 10 0 6 -4 10 -10 10 -5 0
-10 -4 -10 -10z"/>
<path d="M2063 5055 c-1 -30 1 -34 13 -24 18 14 18 59 1 59 -8 0 -13 -14 -14
-35z"/>
<path d="M4576 4551 c-4 -7 -5 -15 -2 -18 9 -9 19 4 14 18 -4 11 -6 11 -12 0z"/>
<path d="M5472 4479 c-47 -5 -100 -18 -122 -29 -22 -11 -59 -20 -83 -20 -23 0
-69 -7 -100 -15 -32 -8 -71 -15 -86 -15 -16 0 -59 -16 -97 -35 -80 -39 -99
-69 -129 -195 -10 -41 -22 -79 -26 -85 -18 -18 -8 -58 22 -97 34 -42 34 -45 4
-48 -41 -5 -54 1 -57 23 -2 17 -10 22 -35 23 -38 0 -53 11 -29 20 25 9 20 50
-6 58 -40 10 -85 6 -98 -9 -7 -8 -22 -15 -34 -15 -27 0 -46 -18 -46 -44 0 -10
-12 -35 -26 -54 l-27 -34 24 7 c42 14 54 11 57 -13 2 -15 -7 -32 -29 -53 -24
-23 -29 -33 -21 -41 16 -16 15 -77 -1 -84 -9 -3 -15 -23 -15 -52 -1 -26 -3
-67 -4 -92 -2 -32 3 -53 16 -70 22 -29 81 -70 101 -70 18 0 28 -17 15 -25 -5
-3 -10 -11 -10 -17 0 -6 11 -3 25 6 32 21 33 21 37 -11 3 -25 7 -28 36 -25 27
3 40 -4 78 -42 27 -27 55 -46 68 -46 23 0 66 -38 66 -58 0 -15 16 -16 25 -2 3
6 17 10 31 10 13 0 24 -4 24 -10 0 -5 -7 -10 -15 -10 -8 0 -12 -6 -9 -14 3 -9
-3 -20 -15 -28 -30 -19 -26 -23 24 -24 38 -1 45 2 45 19 0 14 3 17 13 9 16
-14 57 -17 85 -8 32 11 38 2 13 -23 -12 -12 -21 -25 -21 -30 0 -10 143 -6 160
4 6 4 8 16 4 27 -4 15 -2 19 7 16 8 -3 14 -11 15 -19 0 -8 2 -18 2 -24 1 -5
28 -10 60 -9 31 0 76 -5 100 -12 23 -7 51 -10 61 -7 16 4 19 1 14 -16 -4 -16
-1 -21 16 -21 23 0 29 26 9 33 -18 5 6 33 45 53 32 17 65 11 50 -9 -5 -6 -10
-27 -12 -44 -2 -27 1 -33 18 -33 11 0 36 7 54 16 33 16 35 16 56 -5 23 -23 46
-27 56 -11 3 6 14 10 23 11 9 0 33 20 52 43 26 33 48 48 89 61 78 25 115 64
178 190 54 107 55 111 51 177 -3 38 -2 71 2 73 4 3 11 17 14 31 6 22 1 33 -24
59 -28 28 -32 41 -40 118 -5 47 -14 96 -21 108 -8 15 -9 42 -4 83 17 136 -2
187 -92 249 -26 18 -72 55 -104 82 -40 35 -90 64 -166 97 -123 52 -197 63
-341 47z m518 -1297 c0 -13 -12 -22 -22 -16 -10 6 -1 24 13 24 5 0 9 -4 9 -8z
m-201 -55 c-19 -18 -28 -20 -41 -12 -32 18 -21 26 51 34 9 0 5 -8 -10 -22z"/>
<path d="M3277 4474 c-14 -14 6 -24 46 -24 l42 1 -40 14 c-22 8 -40 15 -41 15
0 0 -4 -3 -7 -6z"/>
<path d="M3144 4447 c5 -20 1 -33 -14 -49 -11 -12 -20 -29 -20 -37 0 -11 3
-11 13 4 8 10 19 15 24 12 6 -4 22 2 34 12 l24 20 -34 33 -33 33 6 -28z"/>
<path d="M4005 4430 c-14 -16 -15 -20 -4 -20 16 0 39 19 39 32 0 14 -16 9 -35
-12z"/>
<path d="M3353 4383 c-7 -15 -13 -34 -13 -43 0 -9 -5 -21 -11 -27 -6 -6 -9
-23 -7 -39 l3 -29 17 30 c10 17 17 26 18 21 0 -5 7 -3 15 4 21 18 18 110 -4
110 -3 0 -12 -12 -18 -27z"/>
<path d="M3045 4380 c-3 -5 -1 -10 4 -10 6 0 11 5 11 10 0 6 -2 10 -4 10 -3 0
-8 -4 -11 -10z"/>
<path d="M3243 4304 l-1 -36 20 22 c21 22 18 50 -5 50 -8 0 -13 -13 -14 -36z"/>
<path d="M2995 4310 c3 -5 18 -10 33 -10 21 0 24 2 12 10 -20 13 -53 13 -45 0z"/>
<path d="M1750 4109 c-77 -14 -120 -48 -120 -93 0 -11 -10 -30 -22 -43 -22
-23 -22 -24 -5 -91 28 -106 26 -153 -6 -199 -15 -21 -27 -51 -27 -65 0 -27
-20 -84 -46 -130 -9 -18 -12 -40 -8 -66 5 -29 2 -43 -11 -56 -17 -16 -16 -18
3 -39 29 -32 55 -94 48 -113 -5 -13 -2 -15 13 -11 15 4 24 -3 35 -28 17 -36
39 -49 74 -46 22 3 23 0 17 -31 -10 -45 -15 -51 -31 -37 -8 6 -17 9 -20 6 -11
-11 6 -39 26 -44 21 -6 22 -30 1 -26 -6 2 -11 -2 -11 -7 0 -23 32 -7 51 25 12
19 25 35 30 35 13 0 11 -34 -3 -48 -18 -18 -4 -24 26 -12 15 5 32 8 37 4 17
-10 9 -34 -11 -34 -27 0 -25 -26 3 -34 30 -8 32 -7 29 10 -2 8 1 14 6 14 14 0
23 -43 12 -54 -16 -16 -12 -56 4 -50 8 3 12 12 9 20 -4 10 3 14 22 14 21 0 26
4 21 16 -3 9 -6 18 -6 20 0 2 -7 4 -15 4 -8 0 -15 5 -15 10 0 12 9 12 62 0 24
-5 60 -12 81 -15 35 -6 37 -8 37 -41 l0 -36 34 29 c18 17 54 35 80 42 26 6 49
18 53 27 3 8 12 13 19 10 8 -3 14 -1 14 5 0 5 11 15 25 21 14 6 25 19 25 28 0
12 14 19 53 26 51 9 52 10 49 42 -1 23 2 32 14 32 22 0 101 63 96 78 -2 7 5
12 17 12 25 0 26 15 6 53 -27 53 -6 92 56 102 33 6 39 10 34 26 -3 10 -8 47
-10 81 -2 35 -4 66 -4 70 -1 4 -17 10 -36 14 -36 6 -58 24 -31 24 9 0 16 7 16
15 0 11 -12 15 -47 15 -55 0 -76 10 -71 33 2 9 -5 22 -15 29 -11 8 -18 29 -20
58 l-2 45 -75 7 c-120 11 -111 5 -130 96 -13 64 -22 86 -43 102 -14 11 -31 36
-37 55 -11 34 -34 47 -42 24 -3 -8 -14 -7 -35 5 -18 9 -39 16 -47 16 -8 0 -36
11 -63 24 -52 26 -118 36 -173 25z m640 -418 c0 -12 -20 -25 -27 -18 -7 7 6
27 18 27 5 0 9 -4 9 -9z"/>
<path d="M2345 3869 c-4 -6 -5 -12 -2 -15 7 -7 37 7 37 17 0 13 -27 11 -35 -2z"/>
<path d="M1470 3676 c0 -45 1 -46 31 -46 29 0 30 1 27 43 -3 38 -6 42 -30 45
-27 3 -28 2 -28 -42z"/>
<path d="M2430 3709 c0 -5 5 -7 10 -4 6 3 10 8 10 11 0 2 -4 4 -10 4 -5 0 -10
-5 -10 -11z"/>
<path d="M2505 3610 c4 -6 11 -8 16 -5 14 9 11 15 -7 15 -8 0 -12 -5 -9 -10z"/>
<path d="M6409 3534 c-12 -14 -11 -16 5 -13 11 2 21 10 24 17 5 17 -13 15 -29
-4z"/>
<path d="M3638 3370 c-14 -4 -64 -11 -110 -15 -84 -7 -124 -21 -147 -49 -8
-10 -29 -16 -55 -16 -23 0 -56 -4 -74 -9 -47 -14 -140 -98 -167 -151 -13 -26
-35 -61 -49 -78 -15 -16 -26 -34 -26 -40 0 -5 -7 -15 -15 -22 -8 -7 -15 -20
-15 -30 0 -10 -7 -23 -15 -30 -8 -7 -15 -27 -15 -44 0 -19 -11 -48 -29 -72
-29 -39 -47 -94 -42 -126 2 -13 -5 -18 -21 -18 -18 0 -20 -2 -9 -9 12 -8 12
-12 2 -25 -8 -9 -15 -43 -17 -76 -5 -76 -15 -95 -58 -110 -34 -11 -96 -70 -96
-91 0 -5 -16 -17 -36 -25 -29 -12 -41 -27 -64 -77 -16 -34 -47 -80 -69 -102
-41 -41 -52 -61 -27 -52 8 3 19 0 25 -7 11 -13 1 -31 -52 -89 -19 -21 -24 -34
-17 -41 10 -10 14 -46 6 -46 -15 0 -56 50 -56 68 0 22 -22 35 -45 26 -21 -8
-19 -21 5 -34 29 -15 14 -32 -21 -25 -40 9 -59 -9 -59 -56 0 -39 0 -39 -41
-39 -22 0 -48 4 -58 9 -26 14 -65 -9 -69 -41 -2 -19 6 -37 31 -64 40 -44 63
-41 72 10 9 48 30 64 53 42 21 -18 43 -21 58 -6 22 22 124 -39 124 -75 0 -21
-16 -19 -32 3 -7 10 -25 22 -40 26 -32 7 -36 -1 -11 -19 14 -10 15 -16 5 -27
-9 -12 -7 -21 13 -48 14 -19 25 -30 25 -25 0 5 5 4 11 -2 9 -9 4 -18 -17 -37
-28 -25 -29 -26 -10 -41 11 -8 26 -15 33 -15 7 0 14 -4 14 -10 1 -5 3 -14 4
-20 1 -5 3 -21 4 -35 1 -16 7 -25 17 -25 10 0 14 -6 11 -14 -4 -10 7 -15 39
-20 24 -3 55 -8 68 -12 18 -4 25 -1 29 15 6 24 37 29 37 6 0 -11 15 -14 75
-13 51 1 75 6 75 14 0 20 32 26 50 9 14 -13 19 -13 28 -2 6 7 9 23 5 35 -3 12
-1 22 5 22 6 0 12 10 14 23 2 12 13 26 26 32 12 5 22 15 22 21 0 6 9 19 20 29
27 24 126 17 147 -11 13 -18 14 -18 44 0 24 14 41 17 73 11 22 -4 64 -10 91
-13 47 -7 50 -9 50 -36 0 -20 6 -31 20 -37 20 -8 125 -12 125 -5 0 2 -6 19
-14 37 -12 29 -12 39 0 67 11 28 17 32 36 26 13 -4 52 -8 88 -9 42 -2 66 -7
69 -16 7 -21 53 -59 71 -59 10 0 23 7 31 16 7 8 21 13 31 10 13 -3 22 3 28 17
14 33 46 67 63 67 8 0 14 8 13 17 -1 22 36 32 105 26 51 -5 57 -4 62 16 3 12
13 21 25 21 12 0 19 6 18 16 -1 20 80 69 89 54 3 -6 22 -10 41 -10 33 0 45
-12 24 -25 -13 -8 -13 -25 0 -25 6 0 10 6 10 14 0 20 18 30 33 18 7 -5 28 -12
47 -16 44 -8 130 -72 149 -111 8 -16 14 -44 13 -62 l-1 -33 59 0 c52 0 61 3
76 25 10 15 26 25 40 25 36 0 29 18 -8 22 -42 4 -54 38 -13 38 33 0 60 -14 97
-52 23 -24 28 -36 23 -58 -15 -70 39 -88 145 -49 30 11 67 23 83 26 17 3 27
12 27 22 0 10 11 27 24 39 14 11 28 37 31 56 4 19 13 37 21 40 8 3 14 15 14
26 0 28 29 25 40 -5 10 -25 34 -33 45 -15 3 6 -1 13 -9 16 -33 13 -18 44 32
66 55 24 132 84 132 102 0 7 8 24 18 37 29 38 35 97 13 144 -10 22 -26 60 -36
85 -29 78 -167 202 -280 254 -33 15 -69 35 -80 45 -11 11 -49 33 -85 51 -36
18 -77 41 -91 51 -14 10 -50 28 -80 39 -29 12 -56 25 -59 29 -15 21 -80 61
-117 70 -55 15 -151 66 -186 99 -22 21 -26 32 -21 57 5 28 -3 58 -25 95 -5 8
-17 34 -26 56 -10 24 -28 46 -41 53 -13 6 -30 22 -36 37 -7 14 -30 35 -52 46
-23 11 -50 28 -61 38 -11 10 -50 35 -87 55 -52 28 -82 37 -137 42 -63 5 -72 9
-77 28 -6 24 -49 49 -65 39 -5 -3 -26 4 -45 15 -37 22 -61 25 -106 11z m-15
-84 c-3 -11 -53 -18 -53 -7 0 14 14 22 35 19 11 -2 19 -7 18 -12z m-63 -25 c0
-5 -9 -11 -20 -14 -20 -5 -26 3 -13 16 9 10 33 8 33 -2z m-552 -979 c12 -8 22
-18 22 -23 0 -12 -6 -11 -22 4 -7 8 -29 16 -48 20 -19 3 -29 3 -22 0 21 -8 13
-21 -20 -32 -26 -9 -35 -8 -50 6 -10 9 -17 21 -15 27 9 27 112 26 155 -2z
m-18 -143 c0 -6 -4 -7 -10 -4 -5 3 -10 11 -10 16 0 6 5 7 10 4 6 -3 10 -11 10
-16z m-589 -269 c3 -19 11 -45 18 -57 17 -33 2 -28 -34 11 -24 26 -37 34 -53
29 -19 -5 -22 -1 -22 26 0 32 1 32 42 29 40 -3 43 -5 49 -38z m177 -285 c25
-26 23 -40 -6 -47 -15 -4 -18 -1 -14 18 2 14 0 24 -7 24 -6 0 -11 7 -11 15 0
21 11 18 38 -10z"/>
<path d="M6366 3293 c-11 -11 -6 -23 9 -23 8 0 15 4 15 9 0 13 -16 22 -24 14z"/>
<path d="M6242 3253 c-1 -13 -8 -23 -14 -23 -7 0 -30 -19 -52 -41 l-38 -41 41
7 41 7 2 -34 c2 -59 10 -78 31 -78 7 0 6 4 -3 10 -12 8 -12 10 3 16 13 4 17
18 17 53 0 26 -4 51 -9 57 -5 5 -11 27 -14 49 -2 22 -4 30 -5 18z"/>
<path d="M6320 3179 c0 -8 7 -24 15 -35 11 -15 14 -16 15 -3 0 8 -7 24 -15 35
-11 15 -14 16 -15 3z"/>
<path d="M1560 3132 c0 -10 43 -52 53 -52 12 0 8 35 -5 48 -14 14 -48 16 -48
4z"/>
<path d="M5065 3130 c3 -5 12 -10 20 -10 8 0 17 5 20 10 4 6 -5 10 -20 10 -15
0 -24 -4 -20 -10z"/>
<path d="M6166 3123 c-4 -9 -2 -21 4 -27 7 -7 10 -2 10 17 0 31 -5 34 -14 10z"/>
<path d="M5982 3108 c-10 -10 -10 -14 3 -53 6 -19 7 -19 20 5 8 14 14 30 15
36 0 17 -26 24 -38 12z"/>
<path d="M5224 3074 c-18 -15 -17 -15 15 -10 18 3 44 6 58 6 14 0 21 4 18 10
-10 16 -69 12 -91 -6z"/>
<path d="M6117 3074 c-3 -3 -4 -11 -1 -17 2 -7 -9 -21 -25 -31 -16 -11 -27
-25 -24 -32 2 -6 -11 -17 -29 -24 -32 -13 -32 -13 -8 -17 14 -3 29 -9 35 -14
16 -16 35 -10 32 12 -1 16 6 24 33 32 38 13 54 49 36 80 -11 17 -37 23 -49 11z"/>
<path d="M5855 3020 c-3 -5 -2 -10 4 -10 5 0 13 5 16 10 3 6 2 10 -4 10 -5 0
-13 -4 -16 -10z"/>
<path d="M1620 3010 c0 -5 5 -10 10 -10 6 0 10 5 10 10 0 6 -4 10 -10 10 -5 0
-10 -4 -10 -10z"/>
<path d="M5910 3013 c-8 -2 -25 -19 -38 -38 -12 -19 -27 -35 -32 -35 -6 0 -10
-5 -10 -12 0 -9 3 -9 12 0 19 19 28 14 28 -18 0 -33 11 -38 34 -14 11 10 14
24 10 41 -7 25 -5 26 25 20 32 -7 44 9 15 20 -9 3 -19 13 -22 22 -4 9 -14 15
-22 14z"/>
<path d="M5998 2983 c6 -2 18 -2 25 0 6 3 1 5 -13 5 -14 0 -19 -2 -12 -5z"/>
<path d="M1725 2950 c-4 -6 -16 -10 -28 -8 -13 2 -23 -3 -25 -12 -4 -23 47
-20 60 3 11 20 5 36 -7 17z"/>
<path d="M1620 2870 c0 -5 4 -10 9 -10 6 0 13 5 16 10 3 6 -1 10 -9 10 -9 0
-16 -4 -16 -10z"/>
<path d="M1785 2810 c3 -5 8 -10 11 -10 2 0 4 5 4 10 0 6 -5 10 -11 10 -5 0
-7 -4 -4 -10z"/>
<path d="M1970 2784 c0 -8 5 -12 10 -9 6 4 8 11 5 16 -9 14 -15 11 -15 -7z"/>
<path d="M2090 2770 c0 -5 4 -10 9 -10 6 0 13 5 16 10 3 6 -1 10 -9 10 -9 0
-16 -4 -16 -10z"/>
<path d="M2020 2749 c0 -5 5 -7 10 -4 6 3 10 8 10 11 0 2 -4 4 -10 4 -5 0 -10
-5 -10 -11z"/>
<path d="M4200 1800 c-8 -5 -11 -12 -7 -16 4 -4 15 0 24 9 18 18 8 23 -17 7z"/>
<path d="M4150 1755 c0 -8 -5 -15 -11 -15 -17 0 -6 -44 12 -48 19 -4 34 27 20
41 -5 5 -7 16 -4 23 3 8 0 14 -6 14 -6 0 -11 -7 -11 -15z"/>
<path d="M4220 1746 c0 -9 5 -16 10 -16 6 0 10 4 10 9 0 6 -4 13 -10 16 -5 3
-10 -1 -10 -9z"/>
<path d="M4330 1716 c0 -16 27 -29 35 -16 3 5 -4 14 -15 20 -16 8 -20 8 -20
-4z"/>
<path d="M2260 1696 c0 -8 11 -13 26 -13 14 0 33 -8 42 -17 11 -10 12 -16 4
-16 -7 0 -12 -4 -12 -10 0 -13 23 -13 37 1 15 15 -10 43 -50 58 -37 14 -47 14
-47 -3z"/>
<path d="M4082 1675 c-18 -39 -15 -54 8 -48 29 8 33 19 17 48 l-13 26 -12 -26z"/>
<path d="M4155 1659 c-4 -6 -5 -13 -2 -16 7 -7 27 6 27 18 0 12 -17 12 -25 -2z"/>
<path d="M4115 1610 c3 -5 8 -10 11 -10 2 0 4 5 4 10 0 6 -5 10 -11 10 -5 0
-7 -4 -4 -10z"/>
<path d="M2312 1583 c2 -9 9 -18 16 -21 18 -6 15 25 -4 32 -11 4 -14 1 -12
-11z"/>
<path d="M2280 1580 c0 -5 5 -10 10 -10 6 0 10 5 10 10 0 6 -4 10 -10 10 -5 0
-10 -4 -10 -10z"/>
<path d="M3676 1571 c-4 -7 -5 -15 -2 -18 9 -9 19 4 14 18 -4 11 -6 11 -12 0z"/>
<path d="M3048 1556 c-24 -18 -22 -26 5 -26 23 0 47 17 47 32 0 13 -33 9 -52
-6z"/>
<path d="M2370 1532 c0 -10 33 -42 43 -42 9 0 -5 34 -17 42 -15 10 -26 10 -26
0z"/>
<path d="M3240 1530 c0 -5 5 -10 11 -10 5 0 7 5 4 10 -3 6 -8 10 -11 10 -2 0
-4 -4 -4 -10z"/>
<path d="M3211 1469 c-45 -20 -46 -22 -26 -84 4 -15 -2 -29 -19 -48 -21 -23
-24 -32 -16 -48 9 -16 7 -19 -8 -19 -29 0 -34 -12 -12 -27 17 -12 23 -12 41 1
28 19 49 10 49 -20 0 -15 6 -24 15 -24 8 0 15 4 15 9 0 5 26 15 57 21 57 12
57 12 82 -16 23 -27 30 -29 95 -29 51 0 74 4 83 15 11 13 12 13 13 -1 0 -36
150 -64 150 -28 0 5 -6 9 -14 9 -7 0 -19 7 -26 15 -7 8 -25 15 -40 15 -34 0
-39 12 -30 63 8 43 18 57 28 40 4 -7 21 -11 37 -10 32 2 44 29 26 56 -8 12
-14 12 -40 1 -36 -15 -50 -8 -31 15 18 22 0 37 -36 33 -28 -3 -29 -5 -29 -53
0 -74 -19 -92 -61 -60 -19 15 -19 15 5 36 21 17 23 23 13 39 -8 13 -8 21 -1
25 12 8 -5 31 -35 47 -20 11 -20 11 -2 -16 22 -35 14 -44 -19 -22 -15 10 -25
26 -25 40 0 13 -8 30 -17 37 -15 12 -16 12 -10 -5 11 -28 -1 -56 -24 -56 -10
0 -20 5 -20 10 -1 6 -3 15 -4 20 -1 6 -3 13 -4 18 -1 4 -10 -12 -21 -36 -17
-38 -22 -42 -40 -32 -11 6 -22 23 -26 38 -13 61 -9 59 -73 31z"/>
<path d="M5240 1474 c0 -14 3 -14 15 -4 8 7 15 14 15 16 0 2 -7 4 -15 4 -8 0
-15 -7 -15 -16z"/>
<path d="M3010 1470 c0 -5 5 -10 10 -10 6 0 10 5 10 10 0 6 -4 10 -10 10 -5 0
-10 -4 -10 -10z"/>
<path d="M3669 1418 c29 -28 33 -30 48 -16 14 15 13 18 -15 32 -17 9 -39 16
-48 16 -14 0 -10 -7 15 -32z"/>
<path d="M3953 1414 c-9 -23 11 -38 26 -20 13 16 7 36 -10 36 -5 0 -12 -7 -16
-16z"/>
<path d="M3753 1356 c-10 -33 -10 -34 21 -39 32 -5 56 6 37 17 -6 4 -11 18
-11 32 0 38 -34 31 -47 -10z"/>
<path d="M5357 1350 c-3 -14 -14 -20 -31 -20 -21 0 -26 -5 -26 -25 0 -34 20
-40 66 -18 32 15 40 24 42 51 3 28 0 32 -21 32 -16 0 -26 -7 -30 -20z"/>
<path d="M2992 1333 c3 -18 67 -55 81 -46 13 8 -13 43 -33 43 -10 0 -22 5 -25
10 -10 17 -27 11 -23 -7z"/>
<path d="M3935 1330 c-3 -5 -1 -10 4 -10 6 0 11 5 11 10 0 6 -2 10 -4 10 -3 0
-8 -4 -11 -10z"/>
<path d="M3786 1236 c3 -9 11 -16 16 -16 13 0 5 23 -10 28 -7 2 -10 -2 -6 -12z"/>
<path d="M5320 1239 c0 -5 5 -7 10 -4 6 3 10 8 10 11 0 2 -4 4 -10 4 -5 0 -10
-5 -10 -11z"/>
<path d="M2600 1227 c0 -18 27 -53 34 -46 9 9 -11 59 -24 59 -5 0 -10 -6 -10
-13z"/>
<path d="M5450 1196 c0 -15 18 -31 26 -23 7 7 -7 37 -17 37 -5 0 -9 -6 -9 -14z"/>
<path d="M5370 1194 c0 -17 17 -36 24 -26 3 5 -1 15 -9 22 -8 7 -15 9 -15 4z"/>
<path d="M2654 1134 c3 -9 6 -20 6 -25 0 -5 7 -9 15 -9 8 0 15 4 15 9 0 21
-13 41 -27 41 -10 0 -13 -6 -9 -16z"/>
<path d="M2440 951 c0 -12 29 -23 41 -15 5 3 7 10 4 15 -8 12 -45 12 -45 0z"/>
<path d="M2535 936 c11 -8 23 -12 28 -9 13 8 -3 23 -26 23 -20 0 -20 0 -2 -14z"/>
<path d="M2395 899 c-10 -15 3 -25 16 -12 7 7 7 13 1 17 -6 3 -14 1 -17 -5z"/>
<path d="M2527 904 c-4 -4 -7 -18 -7 -30 0 -17 13 -31 46 -50 32 -19 52 -40
64 -66 16 -35 18 -37 32 -21 19 24 17 69 -7 118 -11 22 -20 41 -20 41 -1 6
-102 14 -108 8z"/>
<path d="M2450 880 c0 -22 7 -25 29 -11 16 10 6 31 -15 31 -8 0 -14 -9 -14
-20z"/>
<path d="M2560 599 c-50 -28 -37 -79 21 -79 32 0 47 15 23 24 -16 6 -15 19 1
59 9 22 -1 21 -45 -4z"/>
</g>-->
</svg>
